<svg width="287" height="250" viewBox="0 0 287 250" fill="none" xmlns="http://www.w3.org/2000/svg">
<path d="M1 1H286L266.947 32.7685H57.7618L61.7312 39.1222L154.217 39.9164L136.752 71.2878L79.9902 72.082L108.57 121.323L90.7075 153.489L1 1Z" stroke="#CBB488"/>
<path d="M201.056 39.9164L163.347 39.1222L129 104.5L96 163L114.127 192.405L147.469 136.81H172.079L128.02 216.232L146.675 248L206.613 141.178C213.281 129.742 209.391 121.588 206.613 118.941C219.632 117.034 229.238 101.997 232.414 94.717L263.375 39.1222L226.46 39.9164L191.926 102.262H166.125L201.056 39.9164Z" stroke="#CBB488"/>
</svg>
