<svg width="285" height="247" viewBox="0 0 285 247" fill="none" xmlns="http://www.w3.org/2000/svg">
<path d="M60.7269 38.6222L152.371 39.4091L135.456 69.7919L78.9833 70.582L78.1289 70.594L78.5578 71.333L106.995 120.329L89.695 151.481L0.874249 0.5H284.117L265.664 31.2685H56.7618H55.8599L56.3378 32.0334L60.3071 38.3871L60.4525 38.6198L60.7269 38.6222ZM145.666 245.996L127.595 215.224L171.517 136.053L171.929 135.31H171.079H146.469H146.186L146.041 135.553L113.121 190.443L95.5804 161.989L128.435 103.746L128.439 103.739L128.443 103.733L162.646 38.6286L199.212 39.3987L164.689 101.018L164.272 101.762H165.125H190.926H191.221L191.364 101.504L225.758 39.4101L261.514 38.6408L230.977 93.4738L230.965 93.4949L230.955 93.5171C229.386 97.1148 226.218 102.647 221.833 107.509C217.443 112.378 211.885 116.517 205.54 117.446L204.525 117.594L205.268 118.303C207.871 120.782 211.739 128.68 205.181 139.927L205.177 139.934L145.666 245.996Z" fill="#CBB488" stroke="#CBB488"/>
</svg>
