<svg width="114" height="135" viewBox="0 0 114 135" fill="none" xmlns="http://www.w3.org/2000/svg">
<path fill-rule="evenodd" clip-rule="evenodd" d="M78.433 45.152V7.90395H99.937C103.777 7.90395 106.806 9.05595 109.025 11.3599C111.329 13.5786 112.481 16.608 112.481 20.448V21.728H113.761V7.90395V7.51995V3.80795V2.39995V0.0959473C112.993 0.437281 111.713 0.778615 109.921 1.11995C108.129 1.46128 106.166 1.75995 104.033 2.01595C101.985 2.27195 100.022 2.39995 98.1449 2.39995H78.433H78.049H59.617H59.233H49.377V3.67995H50.145H51.041C53.2596 3.67995 55.137 4.49062 56.673 6.11195C58.2943 7.64795 59.1476 9.52528 59.233 11.7439V58.8307L33.529 92.7599L34.937 94.936C35.961 96.3013 37.2836 98.0933 38.905 100.312C40.5263 102.531 42.233 104.92 44.025 107.48C45.9023 109.955 47.6943 112.387 49.401 114.776C51.1076 117.165 52.601 119.213 53.881 120.92C55.161 122.627 56.0143 123.779 56.441 124.376C58.489 127.107 60.8783 129.24 63.609 130.776C66.425 132.227 69.1983 133.251 71.929 133.848C74.6596 134.445 77.0916 134.787 79.225 134.872C81.4436 134.957 83.0223 135 83.961 135H94.457V133.72C91.8116 133.635 89.465 132.952 87.417 131.672C85.369 130.307 83.3636 128.344 81.401 125.784L56.7452 92H59.233H59.617H78.049H78.433H88.289V90.72H87.393H86.625C84.4063 90.72 82.4863 89.952 80.865 88.416C79.329 86.7946 78.5183 84.8746 78.433 82.656V50.528H95.329C98.4863 50.6133 101.089 51.68 103.137 53.728C105.185 55.776 106.209 58.3786 106.209 61.536V62.56H107.489V50.528V50.272V45.408V45.152V33.12H106.209V34.016C106.209 37.1733 105.185 39.8186 103.137 41.952C101.089 44 98.4863 45.0666 95.329 45.152H78.433ZM59.233 70.9183L49.6524 82.2812L55.0516 89.6794C55.6288 89.3408 56.1692 88.9197 56.673 88.416C58.2943 86.7946 59.1476 84.8746 59.233 82.656V70.9183ZM29.433 125.656V54.7439C29.5183 52.5253 30.329 50.6479 31.865 49.112C33.4863 47.4906 35.4063 46.6799 37.625 46.6799H38.393H39.289V45.3999H29.433H29.049H10.617H10.233H0.376953V46.6799H1.14495H2.04095C4.25962 46.6799 6.13695 47.4906 7.67295 49.112C9.29429 50.6479 10.1476 52.5253 10.233 54.7439V125.656C10.1476 127.875 9.29429 129.795 7.67295 131.416C6.13695 132.952 4.25962 133.72 2.04095 133.72H1.14495H0.376953V135H10.233H10.617H29.049H29.433H39.289V133.72H38.393H37.625C35.4063 133.72 33.4863 132.952 31.865 131.416C30.329 129.795 29.5183 127.875 29.433 125.656Z" fill="black" fill-opacity="0.04"/>
</svg>
